<?xml version="1.0" encoding="utf-8"?>
<!-- Generator: Adobe Illustrator 19.2.1, SVG Export Plug-In . SVG Version: 6.00 Build 0)  -->
<svg version="1.1" id="Layer_1" xmlns="http://www.w3.org/2000/svg" xmlns:xlink="http://www.w3.org/1999/xlink" x="0px" y="0px"
	 viewBox="0 0 280 88" style="enable-background:new 0 0 280 88;" xml:space="preserve">
<style type="text/css">
	.st0{fill:#010101;}
</style>
<g>
	<path class="st0" d="M0,88V0h23.6v9.2H11.9V79h11.7v9H0z"/>
	<path class="st0" d="M59.6,69.4c-0.4-1.3-0.7-2.8-0.8-4.6c-1.6,1.8-3.7,3.2-6.3,4.3c-2.6,1.1-5.7,1.6-9.1,1.6
		c-5.9,0-10.2-1.3-12.9-3.9c-2.7-2.6-4.1-6-4.1-10.1c0-3.7,0.6-6.6,1.8-8.8c1.2-2.2,2.8-3.9,4.9-5.1c2.1-1.2,4.5-2.2,7.4-2.7
		c2.9-0.6,6-1.1,9.4-1.6c3.4-0.5,5.7-1.1,6.8-1.9c1.2-0.8,1.8-2.1,1.8-3.9c0-1.7-0.8-3-2.3-3.9c-1.6-0.9-3.6-1.4-6.3-1.4
		c-3.1,0-5.3,0.7-6.7,2.1c-1.3,1.4-2.2,3.2-2.5,5.5H28c0.1-2.6,0.5-5,1.3-7.3c0.8-2.2,2.1-4.1,3.8-5.7c1.8-1.6,4.1-2.8,6.9-3.7
		c2.8-0.9,6.3-1.3,10.3-1.3c4,0,7.4,0.4,10.2,1.3c2.8,0.9,5,2.2,6.7,3.9c1.7,1.7,2.9,3.8,3.7,6.3c0.8,2.5,1.1,5.4,1.1,8.6v32.2H59.6
		z M58.7,44.4c-0.7,0.7-1.7,1.2-3,1.7c-1.3,0.4-3.2,0.9-5.7,1.3c-3.9,0.8-6.5,1.7-8,2.9s-2.2,2.9-2.2,5.1c0,3.8,2.2,5.7,6.5,5.7
		c1.7,0,3.3-0.3,4.8-0.9c1.5-0.6,2.8-1.4,3.8-2.4c1.1-1,1.9-2.2,2.6-3.5c0.7-1.3,1-2.8,1-4.3L58.7,44.4z"/>
	<path class="st0" d="M75.8,88v-9h11.9V9.2H75.8V0h23.8v88H75.8z"/>
	<path class="st0" d="M142.4,69.4V38.5c0-3.9-0.7-6.6-2-8c-1.3-1.4-3.6-2.1-6.7-2.1c-7,0-10.5,3.9-10.5,11.7v29.2h-13.5v-51h12.8
		v7.5c1.6-2.9,3.7-5.1,6.3-6.6c2.6-1.5,6-2.2,10.1-2.2c2.4,0,4.7,0.4,6.7,1.1c2.1,0.7,3.8,1.8,5.3,3.3c1.5,1.5,2.7,3.2,3.5,5.3
		c0.9,2.1,1.3,4.5,1.3,7.3v35.3H142.4z"/>
	<path class="st0" d="M173.6,47.4c0.2,3.9,1.3,6.9,3.4,9.2c2,2.3,4.7,3.4,8,3.4c2.2,0,4.2-0.5,5.8-1.5c1.7-1,2.8-2.4,3.3-4.2H208
		c-1.6,5.3-4.3,9.3-8.3,12.1c-3.9,2.8-8.6,4.2-14.1,4.2c-17,0-25.5-9.3-25.5-27.8c0-3.9,0.6-7.5,1.7-10.7c1.1-3.2,2.7-5.9,4.8-8.2
		c2.1-2.3,4.7-4,7.7-5.2c3-1.2,6.5-1.8,10.5-1.8c7.9,0,13.8,2.5,17.8,7.6c4,5,6.1,12.6,6.1,22.8H173.6z M194.8,38.9
		c-0.1-1.9-0.4-3.5-1-4.9c-0.6-1.4-1.4-2.6-2.3-3.5c-1-0.9-2.1-1.6-3.3-2.1c-1.2-0.4-2.5-0.7-3.8-0.7c-2.7,0-5,1-7,3
		c-2,2-3.1,4.7-3.4,8.2H194.8z"/>
	<path class="st0" d="M251.6,69.4l-8.1-29.6l-8.1,29.6h-13.8l-14.5-51h14.2l8.3,32.8l7-32.8h13.7l8,32.8l7.8-32.8H280l-14.6,51
		H251.6z"/>
</g>
</svg>
