<?xml version="1.0" encoding="utf-8"?>
<!-- Generator: Adobe Illustrator 19.2.1, SVG Export Plug-In . SVG Version: 6.00 Build 0)  -->
<svg version="1.1" id="Layer_1" xmlns="http://www.w3.org/2000/svg" xmlns:xlink="http://www.w3.org/1999/xlink" x="0px" y="0px"
	 viewBox="0 0 272.3 85.4" style="enable-background:new 0 0 272.3 85.4;" xml:space="preserve">
<style type="text/css">
	.st0{fill:#010101;}
</style>
<g>
	<path class="st0" d="M0,85.4V0h22.9v9H11.6v67.7h11.4v8.8H0z"/>
	<path class="st0" d="M58,67.3c-0.4-1.3-0.7-2.7-0.8-4.4c-1.5,1.7-3.6,3.1-6.1,4.2c-2.6,1-5.5,1.6-8.9,1.6c-5.7,0-9.9-1.3-12.5-3.8
		c-2.7-2.5-4-5.8-4-9.8c0-3.6,0.6-6.4,1.7-8.5c1.1-2.1,2.7-3.8,4.7-5c2-1.2,4.4-2.1,7.2-2.7c2.8-0.6,5.8-1.1,9.1-1.6
		c3.3-0.5,5.5-1.1,6.6-1.9c1.1-0.8,1.7-2,1.7-3.8c0-1.6-0.8-2.9-2.3-3.8C53,27,51,26.6,48.4,26.6c-3,0-5.2,0.7-6.5,2
		c-1.3,1.3-2.1,3.1-2.5,5.3H27.3c0.1-2.5,0.5-4.9,1.3-7c0.8-2.1,2-4,3.7-5.5c1.7-1.5,3.9-2.7,6.7-3.6C41.7,17,45,16.5,49,16.5
		c3.9,0,7.2,0.4,9.9,1.3c2.7,0.9,4.9,2.1,6.5,3.8c1.6,1.6,2.8,3.7,3.6,6.1c0.7,2.5,1.1,5.2,1.1,8.3v31.3H58z M57.1,43.1
		c-0.7,0.7-1.6,1.2-2.9,1.6c-1.3,0.4-3.1,0.8-5.5,1.3c-3.8,0.7-6.3,1.7-7.7,2.8s-2.1,2.8-2.1,4.9c0,3.7,2.1,5.5,6.3,5.5
		c1.7,0,3.2-0.3,4.7-0.9c1.4-0.6,2.7-1.3,3.7-2.3c1-1,1.9-2.1,2.5-3.4c0.6-1.3,1-2.7,1-4.2L57.1,43.1z"/>
	<path class="st0" d="M73.8,85.4v-8.8h11.6V9H73.8V0h23.1v85.4H73.8z"/>
	<path class="st0" d="M138.5,67.3v-30c0-3.8-0.6-6.4-1.9-7.7c-1.3-1.3-3.5-2-6.5-2c-6.8,0-10.2,3.8-10.2,11.4v28.4h-13.1V17.8h12.5
		v7.2c1.5-2.8,3.6-4.9,6.1-6.4c2.5-1.4,5.8-2.2,9.9-2.2c2.3,0,4.5,0.4,6.5,1.1c2,0.7,3.7,1.8,5.2,3.2c1.4,1.4,2.6,3.1,3.4,5.2
		c0.8,2,1.3,4.4,1.3,7.1v34.3H138.5z"/>
	<path class="st0" d="M168.9,46c0.2,3.8,1.3,6.7,3.3,9c2,2.2,4.6,3.3,7.8,3.3c2.1,0,4-0.5,5.7-1.5c1.6-1,2.7-2.3,3.2-4.1h13.5
		c-1.5,5.1-4.2,9-8,11.8c-3.8,2.8-8.4,4.1-13.7,4.1c-16.5,0-24.8-9-24.8-27c0-3.8,0.5-7.3,1.6-10.4c1.1-3.1,2.6-5.7,4.7-7.9
		c2-2.2,4.5-3.9,7.5-5.1c3-1.2,6.3-1.8,10.2-1.8c7.6,0,13.4,2.4,17.4,7.3C201,28.8,203,36.2,203,46H168.9z M189.5,37.8
		c-0.1-1.8-0.4-3.4-1-4.8c-0.6-1.4-1.3-2.5-2.3-3.4c-0.9-0.9-2-1.6-3.2-2c-1.2-0.4-2.4-0.7-3.7-0.7c-2.6,0-4.9,1-6.8,2.9
		c-1.9,1.9-3,4.6-3.3,8H189.5z"/>
	<path class="st0" d="M244.7,67.3l-7.8-28.8L229,67.3h-13.4l-14.1-49.5h13.8l8.1,31.8l6.8-31.8h13.3l7.7,31.8l7.5-31.8h13.5
		l-14.2,49.5H244.7z"/>
</g>
</svg>
